<svg width="128" height="29" viewBox="0 0 128 29" fill="none" xmlns="http://www.w3.org/2000/svg">
<path d="M24.144 28L24.108 9.64L15 24.94H13.344L4.236 9.748V28H0.78V2.8H3.732L14.244 20.512L24.612 2.8H27.564L27.6 28H24.144ZM42.8308 28.216C40.9348 28.216 39.2308 27.796 37.7188 26.956C36.2068 26.116 35.0188 24.964 34.1548 23.5C33.3148 22.012 32.8948 20.332 32.8948 18.46C32.8948 16.588 33.3148 14.92 34.1548 13.456C35.0188 11.968 36.2068 10.816 37.7188 10C39.2308 9.16 40.9348 8.74 42.8308 8.74C44.7268 8.74 46.4188 9.16 47.9068 10C49.4188 10.816 50.5948 11.968 51.4348 13.456C52.2988 14.92 52.7308 16.588 52.7308 18.46C52.7308 20.332 52.2988 22.012 51.4348 23.5C50.5948 24.964 49.4188 26.116 47.9068 26.956C46.4188 27.796 44.7268 28.216 42.8308 28.216ZM42.8308 25.192C44.0548 25.192 45.1468 24.916 46.1068 24.364C47.0908 23.788 47.8588 22.996 48.4108 21.988C48.9628 20.956 49.2388 19.78 49.2388 18.46C49.2388 17.14 48.9628 15.976 48.4108 14.968C47.8588 13.936 47.0908 13.144 46.1068 12.592C45.1468 12.04 44.0548 11.764 42.8308 11.764C41.6068 11.764 40.5028 12.04 39.5188 12.592C38.5588 13.144 37.7908 13.936 37.2148 14.968C36.6628 15.976 36.3868 17.14 36.3868 18.46C36.3868 19.78 36.6628 20.956 37.2148 21.988C37.7908 22.996 38.5588 23.788 39.5188 24.364C40.5028 24.916 41.6068 25.192 42.8308 25.192ZM67.6264 8.74C69.4744 8.74 71.1304 9.148 72.5944 9.964C74.0584 10.78 75.1984 11.92 76.0144 13.384C76.8544 14.848 77.2744 16.54 77.2744 18.46C77.2744 20.38 76.8544 22.084 76.0144 23.572C75.1984 25.036 74.0584 26.176 72.5944 26.992C71.1304 27.808 69.4744 28.216 67.6264 28.216C66.2104 28.216 64.9144 27.94 63.7384 27.388C62.5624 26.836 61.5904 26.032 60.8224 24.976V28H57.5104V1.288H60.9664V11.8C61.7344 10.792 62.6944 10.036 63.8464 9.532C64.9984 9.004 66.2584 8.74 67.6264 8.74ZM67.3384 25.192C68.5624 25.192 69.6544 24.916 70.6144 24.364C71.5984 23.788 72.3664 22.996 72.9184 21.988C73.4944 20.956 73.7824 19.78 73.7824 18.46C73.7824 17.14 73.4944 15.976 72.9184 14.968C72.3664 13.936 71.5984 13.144 70.6144 12.592C69.6544 12.04 68.5624 11.764 67.3384 11.764C66.1384 11.764 65.0464 12.04 64.0624 12.592C63.0784 13.144 62.3104 13.936 61.7584 14.968C61.2064 15.976 60.9304 17.14 60.9304 18.46C60.9304 19.78 61.2064 20.956 61.7584 21.988C62.3104 22.996 63.0784 23.788 64.0624 24.364C65.0464 24.916 66.1384 25.192 67.3384 25.192ZM82.0494 8.92H85.5054V28H82.0494V8.92ZM83.7774 5.248C83.1054 5.248 82.5414 5.032 82.0854 4.6C81.6534 4.168 81.4374 3.64 81.4374 3.016C81.4374 2.392 81.6534 1.864 82.0854 1.432C82.5414 0.975999 83.1054 0.747999 83.7774 0.747999C84.4494 0.747999 85.0014 0.963999 85.4334 1.396C85.8894 1.804 86.1174 2.32 86.1174 2.944C86.1174 3.592 85.8894 4.144 85.4334 4.6C85.0014 5.032 84.4494 5.248 83.7774 5.248ZM92.1041 1.288H95.5601V28H92.1041V1.288ZM102.159 8.92H105.615V28H102.159V8.92ZM103.887 5.248C103.215 5.248 102.651 5.032 102.195 4.6C101.763 4.168 101.547 3.64 101.547 3.016C101.547 2.392 101.763 1.864 102.195 1.432C102.651 0.975999 103.215 0.747999 103.887 0.747999C104.559 0.747999 105.111 0.963999 105.543 1.396C105.999 1.804 106.227 2.32 106.227 2.944C106.227 3.592 105.999 4.144 105.543 4.6C105.111 5.032 104.559 5.248 103.887 5.248ZM119.162 8.74C121.802 8.74 123.818 9.388 125.21 10.684C126.626 11.98 127.334 13.912 127.334 16.48V28H124.058V25.48C123.482 26.368 122.654 27.052 121.574 27.532C120.518 27.988 119.258 28.216 117.794 28.216C115.658 28.216 113.942 27.7 112.646 26.668C111.374 25.636 110.738 24.28 110.738 22.6C110.738 20.92 111.35 19.576 112.574 18.568C113.798 17.536 115.742 17.02 118.406 17.02H123.878V16.336C123.878 14.848 123.446 13.708 122.582 12.916C121.718 12.124 120.446 11.728 118.766 11.728C117.638 11.728 116.534 11.92 115.454 12.304C114.374 12.664 113.462 13.156 112.718 13.78L111.278 11.188C112.262 10.396 113.438 9.796 114.806 9.388C116.174 8.956 117.626 8.74 119.162 8.74ZM118.37 25.552C119.69 25.552 120.83 25.264 121.79 24.688C122.75 24.088 123.446 23.248 123.878 22.168V19.504H118.55C115.622 19.504 114.158 20.488 114.158 22.456C114.158 23.416 114.53 24.172 115.274 24.724C116.018 25.276 117.05 25.552 118.37 25.552Z" fill="#EA8A7F"/>
</svg>
