<svg width="48" height="48" viewBox="0 0 48 48" fill="none" xmlns="http://www.w3.org/2000/svg">
<path d="M25.276 19.0402C24.844 18.9161 24.386 19.0922 24.152 19.4702L20 26.1142L15.848 19.4702C15.61 19.0922 15.154 18.9162 14.7241 19.0402C14.294 19.1621 14 19.5542 14 20.0002V27.0002H13.7821L11.9701 19.7582C11.8601 19.3122 11.4581 19.0002 11 19.0002H8.99997C8.62197 19.0002 8.27594 19.2143 8.104 19.5522L4.10397 27.5522C3.85797 28.0462 4.05794 28.6462 4.552 28.8942C4.69797 28.9662 4.85003 29.0003 5.00003 29.0003C5.36603 29.0003 5.71806 28.7982 5.896 28.4483L9.61797 21.0002H10.218L12.03 28.2422C12.1399 28.6882 12.5419 29.0002 13 29.0002H15C15.552 29.0002 16 28.5522 16 28.0002V23.4862L19.152 28.5302C19.516 29.1142 20.484 29.1142 20.848 28.5302L24 23.4862V28.0002C24 28.5522 24.448 29.0002 25 29.0002C25.552 29.0002 26 28.5522 26 28.0002V20.0002C25.9999 19.5542 25.7059 19.1622 25.276 19.0402Z" fill="#ECEEEF"/>
<path d="M40.414 24L43.7061 20.706C44.0961 20.316 44.0961 19.682 43.7061 19.292C43.3161 18.902 42.682 18.902 42.292 19.292L39 22.584L35.708 19.292C35.52 19.106 35.2659 19 35 19H29C28.448 19 27.9999 19.448 27.9999 20V28C27.9999 28.552 28.448 29 29 29H35C35.2659 29 35.52 28.894 35.708 28.706L39 25.4141L42.292 28.7081C42.4881 28.902 42.744 29.0001 43 29.0001C43.2561 29.0001 43.512 28.9021 43.7061 28.7061C44.0961 28.3161 44.0961 27.6821 43.7061 27.2921L40.414 24ZM34.586 27H30V21H34.586L37.586 24L34.586 27Z" fill="#ECEEEF"/>
<path d="M32 22.9998H29C28.448 22.9998 27.9999 23.4478 27.9999 23.9998C27.9999 24.5518 28.448 24.9998 29 24.9998H32C32.552 24.9998 33 24.5518 33 23.9998C33 23.4478 32.552 22.9998 32 22.9998Z" fill="#ECEEEF"/>
<path d="M12 25.0002H7.00003C6.44803 25.0002 6 25.4483 6 26.0003C6 26.5523 6.44803 27.0002 7.00003 27.0002H12C12.552 27.0002 13 26.5522 13 26.0002C13 25.4482 12.552 25.0002 12 25.0002Z" fill="#ECEEEF"/>
<path d="M41 9H7.00003C3.13997 9 0 12.14 0 16V32.0001C0 35.86 3.13997 39 7.00003 39H41.0001C44.86 39 48 35.86 48 32V16C48 12.14 44.86 9 41 9ZM46 32C46 34.7559 43.758 36.9999 41.0001 36.9999H7.00003C4.242 36.9999 2.00006 34.7559 2.00006 32V16C2.00006 13.2441 4.24209 11.0001 7.00003 11.0001H41.0001C43.7581 11.0001 46 13.2441 46 16V32V32Z" fill="#ECEEEF"/>
</svg>
