<svg width="56" height="56" viewBox="0 0 56 56" fill="none" xmlns="http://www.w3.org/2000/svg">
<g clip-path="url(#clip0_1_357)">
<path d="M42.2939 33.2941C38.4016 33.2941 35.2351 36.4606 35.2351 40.3529C35.2351 44.2452 38.4016 47.4118 42.2939 47.4118C46.1869 47.4118 49.3528 44.2452 49.3528 40.3529C49.3528 36.4606 46.1862 33.2941 42.2939 33.2941ZM42.2939 43.8823C40.3475 43.8823 38.7645 42.2994 38.7645 40.3529C38.7645 38.4065 40.3475 36.8235 42.2939 36.8235C44.2404 36.8235 45.8233 38.4065 45.8233 40.3529C45.8233 42.2995 44.2404 43.8823 42.2939 43.8823Z" fill="white"/>
<path d="M18.1758 33.2941C14.2835 33.2941 11.117 36.4606 11.117 40.3529C11.117 44.2452 14.2835 47.4118 18.1758 47.4118C22.0682 47.4118 25.2347 44.2452 25.2347 40.3529C25.2347 36.4606 22.0682 33.2941 18.1758 33.2941ZM18.1758 43.8823C16.2294 43.8823 14.6464 42.2994 14.6464 40.3529C14.6464 38.4065 16.2294 36.8235 18.1758 36.8235C20.1217 36.8235 21.7053 38.4065 21.7053 40.3529C21.7053 42.2995 20.1223 43.8823 18.1758 43.8823Z" fill="white"/>
<path d="M47.0478 13.0894C46.7477 12.4935 46.1378 12.1176 45.4707 12.1176H36.1765V15.647H44.3824L49.1877 25.2047L52.3418 23.6187L47.0478 13.0894Z" fill="white"/>
<path d="M36.9997 38.6472H23.6468V42.1766H36.9997V38.6472Z" fill="white"/>
<path d="M12.8824 38.6472H6.76484C5.79009 38.6472 5.00018 39.4372 5.00018 40.4118C5.00018 41.3866 5.7902 42.1765 6.76484 42.1765H12.8825C13.8573 42.1765 14.6472 41.3865 14.6472 40.4118C14.6472 39.4371 13.8572 38.6472 12.8824 38.6472Z" fill="white"/>
<path d="M55.6295 27.8588L52.1584 23.3882C51.8249 22.9576 51.3102 22.7058 50.7649 22.7058H37.9413V10.3529C37.9413 9.3781 37.1513 8.5882 36.1766 8.5882H6.76484C5.79009 8.5882 5.00018 9.37821 5.00018 10.3529C5.00018 11.3275 5.7902 12.1175 6.76484 12.1175H34.4119V24.4704C34.4119 25.4452 35.2019 26.2351 36.1765 26.2351H49.9007L52.4707 29.5457V38.6469H47.5883C46.6135 38.6469 45.8236 39.4369 45.8236 40.4115C45.8236 41.3863 46.6137 42.1762 47.5883 42.1762H54.2353C55.2101 42.1762 56 41.3862 56.0001 40.4115V28.9411C56.0001 28.5494 55.8695 28.1682 55.6295 27.8588Z" fill="white"/>
<path d="M12.7654 29.7059H4.64765C3.6729 29.7059 2.883 30.4959 2.883 31.4706C2.883 32.4453 3.67301 33.2352 4.64765 33.2352H12.7652C13.74 33.2352 14.5299 32.4452 14.5299 31.4706C14.53 30.4959 13.74 29.7059 12.7654 29.7059Z" fill="white"/>
<path d="M16.8235 22.7646H1.76466C0.790016 22.7646 0 23.5547 0 24.5294C0 25.5042 0.790016 26.2941 1.76466 26.2941H16.8235C17.7983 26.2941 18.5882 25.5041 18.5882 24.5294C18.5882 23.5548 17.7983 22.7646 16.8235 22.7646Z" fill="white"/>
<path d="M19.7065 15.8236H4.64765C3.6729 15.8236 2.883 16.6136 2.883 17.5883C2.883 18.563 3.67301 19.3529 4.64765 19.3529H19.7065C20.6813 19.3529 21.4712 18.5629 21.4712 17.5883C21.4713 16.6136 20.6813 15.8236 19.7065 15.8236Z" fill="white"/>
</g>
<defs>
<clipPath id="clip0_1_357">
<rect width="56" height="56" fill="white"/>
</clipPath>
</defs>
</svg>
