<svg width="50" height="50" viewBox="0 0 50 50" fill="none" xmlns="http://www.w3.org/2000/svg">
<g clip-path="url(#clip0_1_56)">
<path d="M47.8567 1.16698C46.4097 -0.280266 44.1228 -0.395394 42.5376 0.89952L28.5474 12.3276H4.88749C2.73112 12.3276 0.976776 14.0814 0.976776 16.2372V39.808C0.976776 41.9637 2.73112 43.7176 4.88749 43.7176H16.0018V47.0704H13.5383C12.7294 47.0704 12.0736 47.7262 12.0736 48.5352C12.0736 49.3441 12.7294 49.9999 13.5383 49.9999H29.2122C30.0211 49.9999 30.6769 49.3441 30.6769 48.5352C30.6769 47.7262 30.0211 47.0704 29.2122 47.0704H26.7487V43.7176H37.863C40.0195 43.7176 41.7738 41.9637 41.7738 39.808V14.2681L48.1254 6.48441C49.4189 4.89948 49.3034 2.61344 47.8567 1.16698ZM27.6037 18.1901C27.6487 17.3075 28.0509 16.514 28.738 15.9544L31.175 13.9637L35.066 17.8547L33.0706 20.2999C32.5119 20.9829 31.7188 21.3834 30.8375 21.4273C29.9553 21.4719 29.1269 21.152 28.5029 20.528C27.878 19.903 27.5586 19.0727 27.6037 18.1901ZM26.4275 27.6407C25.7785 28.2898 24.6974 28.5886 23.2147 28.5291C22.091 28.4839 21.1285 28.5629 20.3131 28.7098C20.4599 27.8945 20.5389 26.9315 20.4938 25.8082C20.4343 24.3254 20.7332 23.2446 21.3822 22.5955C22.056 21.9217 22.9519 21.5506 23.9049 21.5506C24.8578 21.5506 25.7536 21.9216 26.4274 22.5955C27.8184 23.9865 27.8184 26.2497 26.4275 27.6407ZM23.8192 47.0705H18.9313V43.7177H23.8192V47.0705ZM38.8444 39.808C38.8444 40.3484 38.4042 40.7881 37.863 40.7881H4.88749C4.34642 40.7881 3.90622 40.3484 3.90622 39.808V38.5583H38.8444V39.808ZM38.8444 35.6288H3.90622V16.2372C3.90622 15.6967 4.34642 15.257 4.88749 15.257H25.5282C25.027 16.0938 24.7287 17.0483 24.6781 18.0408C24.6673 18.2507 24.6679 18.4602 24.6791 18.6683C24.424 18.6382 24.1658 18.621 23.905 18.621C22.1696 18.621 20.538 19.2968 19.3109 20.524C18.0598 21.775 17.4732 23.5924 17.5669 25.9258C17.6917 29.0316 16.662 30.2783 16.5817 30.3704C16.0336 30.9441 16.0416 31.8535 16.6055 32.4175C16.8915 32.7036 17.2664 32.8466 17.6412 32.8466C18.0055 32.8466 18.3698 32.7116 18.6525 32.4415C18.7442 32.3616 19.9911 31.3316 23.0972 31.4562C25.4313 31.5501 27.2481 30.9633 28.4991 29.7122C29.9608 28.2504 30.5772 26.2598 30.352 24.3506C30.4627 24.3568 30.5738 24.3607 30.6852 24.3607C30.7845 24.3607 30.8841 24.3582 30.9837 24.3533C32.6774 24.2687 34.2646 23.4674 35.3394 22.1534L38.8446 17.8581L38.8444 35.6288ZM18.6768 32.4176C18.6768 32.4176 18.6696 32.4257 18.6541 32.4399C18.6618 32.4326 18.6693 32.4252 18.6768 32.4176ZM16.6054 30.3461C16.5979 30.3536 16.5905 30.3612 16.5832 30.3687C16.5974 30.3534 16.6054 30.3461 16.6054 30.3461ZM45.8557 4.63242L36.9274 15.5735L33.4551 12.1012L44.3908 3.16828C44.584 3.01038 44.8171 2.93246 45.0494 2.93246C45.3164 2.93246 45.5823 3.03548 45.7852 3.23839C46.1646 3.61766 46.1948 4.21692 45.8557 4.63242Z" fill="white"/>
</g>
<defs>
<clipPath id="clip0_1_56">
<rect width="50" height="50" fill="white"/>
</clipPath>
</defs>
</svg>
