<svg width="15" height="15" viewBox="0 0 15 15" fill="none" xmlns="http://www.w3.org/2000/svg">
<path d="M6.06 6.64884C6.10125 6.40509 6.17625 6.18759 6.285 5.99634C6.39375 5.80509 6.54375 5.65134 6.7275 5.53509C6.90375 5.42634 7.125 5.36634 7.39875 5.36259C7.57875 5.36634 7.74375 5.39634 7.88625 5.46009C8.04 5.52759 8.1675 5.61759 8.27625 5.73009C8.385 5.84259 8.4675 5.97759 8.5275 6.12759C8.5875 6.27759 8.62125 6.43884 8.62875 6.60759H9.97125C9.96 6.25509 9.88875 5.93259 9.765 5.64009C9.64125 5.34759 9.46125 5.09634 9.23625 4.88259C9.01125 4.66884 8.74125 4.50759 8.42625 4.39134C8.11125 4.27509 7.7625 4.21509 7.38 4.21509C6.8925 4.21509 6.46875 4.29759 6.10875 4.46634C5.74875 4.63509 5.44875 4.86384 5.20875 5.15634C4.96875 5.44884 4.78875 5.78634 4.6725 6.17259C4.55625 6.55884 4.5 6.96759 4.5 7.39884V7.60509C4.5 8.04009 4.56 8.44884 4.67625 8.83509C4.7925 9.22134 4.9725 9.55884 5.2125 9.84759C5.4525 10.1363 5.7525 10.3651 6.11625 10.5338C6.48 10.7026 6.90375 10.7851 7.39125 10.7851C7.74375 10.7851 8.07375 10.7288 8.38125 10.6126C8.68875 10.4963 8.95875 10.3388 9.19125 10.1363C9.42375 9.93384 9.61125 9.70134 9.74625 9.43134C9.88125 9.16134 9.96 8.87634 9.97125 8.56884H8.62875C8.62125 8.72634 8.58375 8.86884 8.51625 9.00384C8.44875 9.13884 8.35875 9.25134 8.24625 9.34509C8.13375 9.43884 8.0025 9.51384 7.8525 9.56634C7.71 9.61509 7.56 9.64134 7.39875 9.64134C7.12875 9.63384 6.9075 9.57759 6.7275 9.46509C6.54 9.34509 6.39 9.19134 6.28125 9.00009C6.1725 8.80884 6.0975 8.59134 6.05625 8.34384C6.015 8.09634 6 7.85634 6 7.60509V7.39884C6 7.14384 6.01875 6.89259 6.06 6.64884Z" fill="white"/>
<path d="M7.5 0C3.35625 0 0 3.35625 0 7.5C0 11.6438 3.35625 15 7.5 15C11.6438 15 15 11.6438 15 7.5C15 3.35625 11.6438 0 7.5 0ZM7.5 13.5C4.1925 13.5 1.5 10.8075 1.5 7.5C1.5 4.1925 4.1925 1.5 7.5 1.5C10.8075 1.5 13.5 4.1925 13.5 7.5C13.5 10.8075 10.8075 13.5 7.5 13.5Z" fill="white"/>
</svg>
