<svg width="50" height="50" viewBox="0 0 50 50" fill="none" xmlns="http://www.w3.org/2000/svg">
<g clip-path="url(#clip0_1_386)">
<path d="M47.7026 25.0016L49.8962 19.2801C50.1368 18.6489 49.9493 17.9334 49.4212 17.5053L44.6653 13.6493L43.7028 7.59657C43.5966 6.92787 43.0716 6.40603 42.4029 6.29979L36.3502 5.33735L32.4973 0.578301C32.0724 0.0502115 31.3412 -0.137276 30.7256 0.103333L25.001 2.30006L19.2795 0.106458C18.6452 -0.137276 17.9358 0.0564611 17.5077 0.581425L13.6517 5.34048L7.59903 6.30291C6.93345 6.40915 6.40849 6.93412 6.30225 7.5997L5.33981 13.6524L0.580761 17.5084C0.0557969 17.9334 -0.134815 18.6489 0.105793 19.2801L2.29939 25.0016L0.105793 30.7231C-0.13794 31.3543 0.0557969 32.0699 0.580761 32.4949L5.33981 36.3477L6.30225 42.4004C6.40849 43.0692 6.93033 43.5941 7.59903 43.7004L13.6517 44.6628L17.5077 49.4187C17.9358 49.9499 18.6514 50.1374 19.2826 49.8937L25.001 47.7032L30.7225 49.8968C30.9037 49.9656 31.0912 49.9999 31.2818 49.9999C31.7411 49.9999 32.1942 49.7968 32.4973 49.4187L36.3502 44.6628L42.4029 43.7004C43.0716 43.5941 43.5966 43.0692 43.7028 42.4004L44.6653 36.3477L49.4212 32.4949C49.9493 32.0668 50.1368 31.3543 49.8962 30.7231L47.7026 25.0016Z" fill="#EA8A7F"/>
<path d="M20.3129 21.8779C17.7287 21.8779 15.6257 19.7749 15.6257 17.1907C15.6257 14.6065 17.7287 12.5035 20.3129 12.5035C22.897 12.5035 25 14.6065 25 17.1907C25 19.7749 22.897 21.8779 20.3129 21.8779ZM20.3129 15.6283C19.4504 15.6283 18.7505 16.3283 18.7505 17.1907C18.7505 18.0532 19.4504 18.7531 20.3129 18.7531C21.1753 18.7531 21.8752 18.0532 21.8752 17.1907C21.8752 16.3283 21.1753 15.6283 20.3129 15.6283Z" fill="#FAFAFA"/>
<path d="M29.6872 37.5009C27.103 37.5009 25 35.398 25 32.8138C25 30.2296 27.103 28.1266 29.6872 28.1266C32.2714 28.1266 34.3743 30.2296 34.3743 32.8138C34.3743 35.398 32.2714 37.5009 29.6872 37.5009ZM29.6872 31.2514C28.8278 31.2514 28.1248 31.9545 28.1248 32.8138C28.1248 33.6731 28.8278 34.3762 29.6872 34.3762C30.5465 34.3762 31.2495 33.6731 31.2495 32.8138C31.2495 31.9545 30.5465 31.2514 29.6872 31.2514Z" fill="#FAFAFA"/>
<path d="M17.1887 37.501C16.8731 37.501 16.5575 37.4072 16.2826 37.2104C15.5795 36.7073 15.417 35.7324 15.9201 35.0293L31.544 13.1558C32.0471 12.4527 33.022 12.2902 33.7251 12.7933C34.4282 13.2933 34.5876 14.2713 34.0876 14.9713L18.4637 36.8448C18.1543 37.2729 17.6762 37.501 17.1887 37.501Z" fill="#FAFAFA"/>
</g>
<defs>
<clipPath id="clip0_1_386">
<rect width="50" height="50" fill="white"/>
</clipPath>
</defs>
</svg>
