<svg width="35" height="35" viewBox="0 0 35 35" fill="none" xmlns="http://www.w3.org/2000/svg">
<path d="M26.25 25.1562H9.36452C9.10838 25.1563 8.86036 25.0664 8.6637 24.9022C8.46705 24.7381 8.33423 24.5102 8.28841 24.2582L4.63772 4.17934C4.5919 3.92733 4.45909 3.6994 4.26243 3.53527C4.06578 3.37115 3.81776 3.28125 3.56161 3.28125H1.09375" stroke="black" stroke-width="2" stroke-linecap="round" stroke-linejoin="round"/>
<path d="M9.84375 30.625C11.3539 30.625 12.5781 29.4008 12.5781 27.8906C12.5781 26.3805 11.3539 25.1562 9.84375 25.1562C8.3336 25.1562 7.10938 26.3805 7.10938 27.8906C7.10938 29.4008 8.3336 30.625 9.84375 30.625Z" stroke="black" stroke-width="2" stroke-linecap="round" stroke-linejoin="round"/>
<path d="M26.25 30.625C27.7602 30.625 28.9844 29.4008 28.9844 27.8906C28.9844 26.3805 27.7602 25.1562 26.25 25.1562C24.7398 25.1562 23.5156 26.3805 23.5156 27.8906C23.5156 29.4008 24.7398 30.625 26.25 30.625Z" stroke="black" stroke-width="2" stroke-linecap="round" stroke-linejoin="round"/>
<path d="M5.46875 8.75H29.3145C29.4747 8.75 29.6329 8.78519 29.778 8.85309C29.9231 8.92099 30.0515 9.01993 30.1542 9.14293C30.2568 9.26593 30.3312 9.40997 30.3721 9.56488C30.4129 9.71979 30.4192 9.88179 30.3906 10.0394L28.6008 19.8832C28.555 20.1352 28.4222 20.3631 28.2255 20.5272C28.0288 20.6914 27.7808 20.7813 27.5247 20.7812H7.65625" stroke="black" stroke-width="2" stroke-linecap="round" stroke-linejoin="round"/>
</svg>
