<svg width="30" height="30" viewBox="0 0 30 30" fill="none" xmlns="http://www.w3.org/2000/svg">
<path fill-rule="evenodd" clip-rule="evenodd" d="M10 0C4.47715 0 0 4.47715 0 10V20C0 25.5228 4.47715 30 10 30H20C25.5228 30 30 25.5228 30 20V10C30 4.47715 25.5228 0 20 0H10ZM20.993 23.0778C20.6759 23.1978 20.3202 23.149 20.0442 22.9536C18.3076 21.7167 15.2459 19.4718 15.2459 19.4718L12.5922 21.9773C12.4079 22.1513 12.1439 22.219 11.897 22.1547C11.6493 22.0896 11.4616 21.901 11.3802 21.661C10.7313 19.7496 9.48676 15.991 9.48676 15.991C9.48676 15.991 6.82362 15.1467 4.79476 14.5398C4.50076 14.4516 4.29676 14.1884 4.28647 13.885C4.27705 13.5824 4.4639 13.3064 4.75105 13.2001C7.1602 12.3087 11.4252 10.7143 15.429 9.21748C18.9438 7.90355 22.2572 6.66486 23.9373 6.04298C24.1705 5.95641 24.4319 6.0027 24.6205 6.16298C24.809 6.32327 24.8948 6.5727 24.8433 6.8127C24.5105 8.3757 23.9058 11.3062 23.2881 14.2992C22.6474 17.4038 21.9929 20.5755 21.6136 22.3578C21.5433 22.6861 21.3102 22.957 20.993 23.0778ZM12.0462 20.263L10.607 15.5161C10.607 15.5161 17.1282 11.3513 20.8019 9.00527C20.9073 8.93841 21.0479 8.96156 21.1242 9.06013C21.2013 9.1587 21.1885 9.29927 21.0959 9.38327C17.9262 12.2418 12.3659 17.257 12.3659 17.257L12.0462 20.263Z" fill="#ECEEEF"/>
</svg>
