<svg width="35" height="35" viewBox="0 0 35 35" fill="none" xmlns="http://www.w3.org/2000/svg">
<path d="M17.5 30.625C24.7487 30.625 30.625 24.7487 30.625 17.5C30.625 10.2513 24.7487 4.375 17.5 4.375C10.2513 4.375 4.375 10.2513 4.375 17.5C4.375 24.7487 10.2513 30.625 17.5 30.625Z" stroke="black" stroke-width="2" stroke-miterlimit="10"/>
<path d="M17.5 21.875C20.5203 21.875 22.9688 19.4266 22.9688 16.4062C22.9688 13.3859 20.5203 10.9375 17.5 10.9375C14.4797 10.9375 12.0312 13.3859 12.0312 16.4062C12.0312 19.4266 14.4797 21.875 17.5 21.875Z" stroke="black" stroke-width="2" stroke-miterlimit="10"/>
<path d="M8.72253 27.2582C9.54642 25.6383 10.8025 24.2781 12.3516 23.328C13.9008 22.3779 15.6827 21.875 17.5 21.875C19.3173 21.875 21.0992 22.3779 22.6483 23.328C24.1975 24.2781 25.4536 25.6383 26.2775 27.2581" stroke="black" stroke-width="2" stroke-linecap="round" stroke-linejoin="round"/>
</svg>
