<svg width="27" height="25" viewBox="0 0 27 25" fill="none" xmlns="http://www.w3.org/2000/svg">
<path d="M13.5 23.4257C13.5 23.4257 1 16.2903 1 7.62579C1.00025 6.09438 1.52082 4.61034 2.47318 3.42596C3.42555 2.24158 4.75093 1.42998 6.22399 1.12914C7.69704 0.8283 9.22685 1.0568 10.5533 1.77578C11.8798 2.49476 12.921 3.65984 13.5 5.07295L13.5 5.07296C14.079 3.65985 15.1202 2.49477 16.4467 1.77578C17.7731 1.0568 19.3029 0.828301 20.776 1.12914C22.2491 1.42997 23.5745 2.24158 24.5268 3.42595C25.4792 4.61033 25.9997 6.09438 26 7.62579C26 16.2903 13.5 23.4257 13.5 23.4257Z" stroke="black" stroke-width="2" stroke-linecap="round" stroke-linejoin="round"/>
</svg>
