<svg width="30" height="28" viewBox="0 0 30 28" fill="none" xmlns="http://www.w3.org/2000/svg">
<path d="M12.9168 1.28926V6.29488C12.9168 6.97407 12.3663 7.52418 11.6875 7.52418C9.26544 7.52418 7.94779 10.0082 7.76491 14.9117H11.6875C12.3662 14.9117 12.9168 15.4626 12.9168 16.141L12.9168 26.7106C12.9168 27.3895 12.3663 27.9396 11.6875 27.9396L1.22938 27.9396C0.550795 27.9396 1.90735e-06 27.3889 1.90735e-06 26.7106L1.90735e-06 16.1409C1.90735e-06 13.7905 0.237284 11.6337 0.703081 9.72881C1.1816 7.77607 1.91614 6.06886 2.8858 4.6541C3.88306 3.20024 5.13161 2.05938 6.59457 1.26486C8.06863 0.465265 9.78211 0.059454 11.688 0.059454C12.3662 0.0599689 12.9168 0.61059 12.9168 1.28926ZM28.771 7.52461C29.4496 7.52461 30 6.97407 30 6.29583V1.28918C30 0.610592 29.4496 0.0604 28.771 0.0604C26.866 0.0604 25.1517 0.466297 23.6785 1.2658C22.2148 2.06024 20.9664 3.20016 19.9693 4.65504C18.999 6.0698 18.2645 7.7771 17.786 9.73079C17.32 11.6357 17.0832 13.7926 17.0832 16.142L17.0832 26.7116C17.0832 27.3906 17.6341 27.9407 18.3125 27.9407L28.771 27.9407C29.4496 27.9407 30 27.3901 30 26.7116L30 16.142C30 15.4631 29.4496 14.9127 28.771 14.9127L24.9035 14.9127C25.0841 10.0087 26.3828 7.52461 28.771 7.52461Z" fill="#EA8A7F"/>
</svg>
