<svg width="50" height="50" viewBox="0 0 50 50" fill="none" xmlns="http://www.w3.org/2000/svg">
<path d="M49.054 39.3878L36.616 26.9493C35.9829 26.3161 35.1445 26.5782 35.294 26.5484C33.9397 26.8183 32.6985 25.9845 31.9195 25.2712L37.0435 20.1469C40.5659 21.1059 44.3834 20.1171 46.9963 17.504C50.0645 14.4357 50.8695 9.74519 48.9997 5.8324C48.5639 4.92068 47.3559 4.71443 46.6421 5.4282L41.9141 10.1563L40.2137 9.78445L39.8429 8.08435L44.5706 3.35652C45.2852 2.64196 45.077 1.43415 44.1663 0.998898C40.2521 -0.871317 35.5617 -0.0662383 32.4951 3.00222C29.8822 5.61521 28.8936 9.43328 29.8528 12.9561L22.4401 20.3691L12.3942 10.3228L13.7753 8.94167C14.4015 8.3155 14.3324 7.27986 13.6293 6.74216L7.75983 2.25359C7.17653 1.80759 6.35328 1.86228 5.83414 2.38142L2.38141 5.83425C1.86227 6.35339 1.80758 7.17673 2.25358 7.75993L6.74205 13.6297C7.27946 14.3326 8.31442 14.4026 8.94147 13.7757L10.3225 12.3946L20.3684 22.4409L12.9557 29.8539C9.43258 28.8947 5.615 29.8832 3.00241 32.4959C-0.0661483 35.563 -0.871324 40.2535 0.998793 44.1677C1.43424 45.0793 2.64225 45.2859 3.35631 44.572L8.08395 39.8441L9.78395 40.2149L10.1559 41.9154L5.42789 46.6436C4.71354 47.358 4.92106 48.5659 5.83209 49.0012C9.74596 50.8719 14.4362 50.0652 17.5034 46.9978C20.1165 44.3846 21.1052 40.567 20.1463 37.0446L25.2692 31.9216C27.0237 33.8416 26.5473 35.2968 26.5473 35.2968C26.454 35.7669 26.5996 36.2681 26.9484 36.6171L39.3864 49.0555C40.6451 50.314 42.6929 50.314 43.9513 49.0555L49.0538 43.9529C50.3155 42.6913 50.3157 40.6494 49.054 39.3878ZM5.35992 6.999L6.99889 5.36003L10.5206 8.0532L8.05299 10.5209L5.35992 6.999ZM17.1071 37.1581C18.12 39.8463 17.4625 42.8955 15.4319 44.9262C13.7751 46.583 11.4572 47.316 9.21647 46.9984L12.794 43.4207C13.1469 43.0678 13.2959 42.5595 13.1892 42.0719L12.4456 38.6709C12.3233 38.1115 11.8862 37.6746 11.3267 37.5526L7.92653 36.8109C7.43942 36.7044 6.93131 36.8536 6.57858 37.2063L3.00162 40.7834C2.68385 38.5427 3.41696 36.2239 5.07389 34.5678C7.10436 32.5372 10.1538 31.88 12.8422 32.8931C13.3805 33.096 13.988 32.965 14.3947 32.5582L32.5572 14.395C32.964 13.9882 33.0951 13.3809 32.8921 12.8426C31.879 10.1538 32.5362 7.10427 34.567 5.07351C36.2231 3.41648 38.5419 2.68366 40.7822 3.00144L37.2052 6.57868C36.8526 6.93132 36.7035 7.43933 36.8098 7.92663L37.5514 11.3269C37.6734 11.8864 38.1103 12.3236 38.6697 12.4459L42.0706 13.1896C42.5581 13.2961 43.0664 13.1472 43.4193 12.7943L46.9969 9.21667C47.3144 11.4568 46.5813 13.7756 44.9247 15.4323C42.894 17.463 39.8451 18.1207 37.1568 17.1076C36.6184 16.9048 36.0112 17.0358 35.6045 17.4426C35.4335 17.6136 17.8854 35.1623 17.442 35.6056C17.0352 36.0125 16.9042 36.6197 17.1071 37.1581ZM29.8482 27.3425C30.4875 27.9389 31.3705 28.6142 32.4383 29.0553L29.0541 32.4398C28.6129 31.372 27.9379 30.4884 27.3416 29.8492L29.8482 27.3425ZM46.9824 41.8812L41.8799 46.9839C41.7636 47.1001 41.5745 47.1002 41.4582 46.9839L30.0558 35.5812L35.5801 30.0567L46.9824 41.4594C47.0991 41.5762 47.0992 41.7643 46.9824 41.8812Z" fill="white"/>
</svg>
