<svg width="48" height="34" viewBox="0 0 48 34" fill="none" xmlns="http://www.w3.org/2000/svg">
<path d="M45.2516 0.199707H2.74844C1.23206 0.199707 0 1.43177 0 2.94815V31.0516C0 32.5679 1.23206 33.8 2.74844 33.8H45.2516C46.7679 33.8 48 32.5679 48 31.0516V2.94519C48 1.43177 46.7679 0.199707 45.2516 0.199707ZM45.1805 30.9775L2.81952 31.0486L2.74844 3.01627L45.1805 2.94519V30.9775Z" fill="#ECEEEF"/>
<path d="M6.821 13.1156L8.24557 23.3216H11.7433L18.2649 10.6841H14.5895L11.8203 16.5453C11.4294 17.3775 11.0888 18.1298 10.7956 18.8198C10.7423 18.1001 10.683 17.4012 10.612 16.6874L10.0522 10.687H4.46054L10.2743 15.2865L6.821 13.1156Z" fill="#ECEEEF"/>
<path d="M20.7764 23.3245L23.1724 10.687H19.882L17.483 23.3245H20.7764Z" fill="#ECEEEF"/>
<path d="M22.7045 22.5783C23.4746 23.1558 24.831 23.4993 26.3326 23.4993C29.4453 23.4993 31.5363 21.7401 31.5363 19.1249C31.5363 17.6944 30.7011 16.5601 28.9863 15.6627C28.0267 15.1237 27.4432 14.7624 27.4432 14.3063C27.4432 13.8798 27.8904 13.4207 28.9507 13.4207C29.9844 13.4207 30.7722 13.8265 30.9232 13.9065L31.2964 14.1108L32.3478 11.2972L32.0723 11.1432C31.2845 10.7078 30.3072 10.4976 29.084 10.4976C26.1045 10.4976 24.0225 12.239 24.0225 14.7328C24.0225 16.5394 25.4441 17.5434 26.6939 18.2187C27.8667 18.8288 28.0978 19.1753 28.0978 19.5692C28.0978 20.3274 27.2803 20.5969 26.5784 20.5969C25.6633 20.5969 24.7096 20.3392 23.9603 19.8891L23.5901 19.6699L22.4765 22.4124L22.7045 22.5783Z" fill="#ECEEEF"/>
<path d="M34.711 23.3245L36.1237 20.2355H38.9729L39.2217 23.3245H42.6394L41.1586 10.687H37.3351L31.1866 23.3245H34.711ZM38.1466 15.5175C38.2769 15.2332 38.4102 14.9074 38.5464 14.5727C38.5701 14.8719 38.5908 15.1532 38.6086 15.3961L38.8011 17.5552H37.2018L38.1466 15.5175Z" fill="#ECEEEF"/>
</svg>
